<?xml version="1.0" encoding="UTF-8" standalone="no"?>
<svg
   xmlns:dc="http://purl.org/dc/elements/1.1/"
   xmlns:cc="http://creativecommons.org/ns#"
   xmlns:rdf="http://www.w3.org/1999/02/22-rdf-syntax-ns#"
   xmlns:svg="http://www.w3.org/2000/svg"
   xmlns="http://www.w3.org/2000/svg"
   xmlns:xlink="http://www.w3.org/1999/xlink"
   xmlns:sodipodi="http://sodipodi.sourceforge.net/DTD/sodipodi-0.dtd"
   xmlns:inkscape="http://www.inkscape.org/namespaces/inkscape"
   inkscape:version="1.0 (4035a4fb49, 2020-05-01)"
   sodipodi:docname="pairing.svg"
   id="svg422"
   width="345.6pt"
   viewBox="0 0 345.6 345.6"
   version="1.1"
   height="345.6pt">
  <metadata
     id="metadata426">
    <rdf:RDF>
      <cc:Work
         rdf:about="">
        <dc:format>image/svg+xml</dc:format>
        <dc:type
           rdf:resource="http://purl.org/dc/dcmitype/StillImage" />
      </cc:Work>
    </rdf:RDF>
  </metadata>
  <sodipodi:namedview
     inkscape:current-layer="g296"
     inkscape:window-maximized="1"
     inkscape:window-y="0"
     inkscape:window-x="0"
     inkscape:cy="230.4"
     inkscape:cx="231.32068"
     inkscape:zoom="2.172309"
     showgrid="false"
     id="namedview424"
     inkscape:window-height="1382"
     inkscape:window-width="2560"
     inkscape:pageshadow="2"
     inkscape:pageopacity="0"
     guidetolerance="10"
     gridtolerance="10"
     objecttolerance="10"
     borderopacity="1"
     bordercolor="#666666"
     pagecolor="#ffffff" />
  <defs
     id="defs4">
    <style
       id="style2"
       type="text/css">
*{stroke-linecap:butt;stroke-linejoin:round;}
  </style>
  </defs>
  <g
     id="figure_1">
    <g
       id="patch_1">
      <path
         id="path6"
         style="fill:#ffffff;"
         d="M 0 345.6  L 345.6 345.6  L 345.6 0  L 0 0  z " />
    </g>
    <g
       id="axes_1">
      <g
         id="patch_2">
        <path
           id="path9"
           style="fill:#ffffff;"
           d="M 20.736 324.864  L 345.6 324.864  L 345.6 0  L 20.736 0  z " />
      </g>
      <g
         id="patch_3">
        <path
           id="path12"
           style="fill:#1f77b4;"
           d="M 97.53024 306.816  L 83.99424 311.328  L 83.99424 306.86112  L 83.904 306.86112  L 83.904 306.77088  L 83.99424 306.77088  L 83.99424 302.304  z "
           clip-path="url(#p369e64dc18)" />
      </g>
      <g
         id="patch_4">
        <path
           id="path15"
           style="fill:#1f77b4;"
           d="M 74.242363 252.034363  L 87.004226 258.415294  L 83.845665 261.573855  L 83.935905 261.664095  L 83.872095 261.727905  L 83.781855 261.637665  L 80.623294 264.796226  z "
           clip-path="url(#p369e64dc18)" />
      </g>
      <g
         id="patch_5">
        <path
           id="path18"
           style="fill:#1f77b4;"
           d="M 141.311446 267.839723  L 127.186652 265.821895  L 129.184302 261.826597  L 129.003822 261.736357  L 129.044178 261.655643  L 129.224658 261.745883  L 131.222308 257.750585  z "
           clip-path="url(#p369e64dc18)" />
      </g>
      <g
         id="patch_6">
        <path
           id="path21"
           style="fill:#1f77b4;"
           d="M 164.482363 252.034363  L 177.244226 258.415294  L 174.085665 261.573855  L 174.175905 261.664095  L 174.112095 261.727905  L 174.021855 261.637665  L 170.863294 264.796226  z "
           clip-path="url(#p369e64dc18)" />
      </g>
      <g
         id="patch_7">
        <path
           id="path24"
           style="fill:#1f77b4;"
           d="M 74.242363 161.794363  L 87.004226 168.175294  L 83.845665 171.333855  L 83.935905 171.424095  L 83.872095 171.487905  L 83.781855 171.397665  L 80.623294 174.556226  z "
           clip-path="url(#p369e64dc18)" />
      </g>
      <g
         id="patch_8">
        <path
           id="path27"
           style="fill:#1f77b4;"
           d="M 185.677353 224.264902  L 171.911913 220.510691  L 174.389692 216.794022  L 174.118972 216.613542  L 174.169028 216.538458  L 174.439748 216.718938  L 176.917527 213.002269  z "
           clip-path="url(#p369e64dc18)" />
      </g>
      <g
         id="patch_9">
        <path
           id="path30"
           style="fill:#1f77b4;"
           d="M 254.722363 252.034363  L 267.484226 258.415294  L 264.325665 261.573855  L 264.415905 261.664095  L 264.352095 261.727905  L 264.261855 261.637665  L 261.103294 264.796226  z "
           clip-path="url(#p369e64dc18)" />
      </g>
      <g
         id="patch_10">
        <path
           id="path33"
           style="fill:#1f77b4;"
           d="M 164.482363 161.794363  L 177.244226 168.175294  L 174.085665 171.333855  L 174.175905 171.424095  L 174.112095 171.487905  L 174.021855 171.397665  L 170.863294 174.556226  z "
           clip-path="url(#p369e64dc18)" />
      </g>
      <g
         id="patch_11">
        <path
           id="path36"
           style="fill:#1f77b4;"
           d="M 74.242363 71.554363  L 87.004226 77.935294  L 83.845665 81.093855  L 83.935905 81.184095  L 83.872095 81.247905  L 83.781855 81.157665  L 80.623294 84.316226  z "
           clip-path="url(#p369e64dc18)" />
      </g>
      <g
         id="patch_12">
        <path
           id="path39"
           style="fill:#1f77b4;"
           d="M 230.45376 179.84832  L 216.91776 175.33632  L 219.597888 171.762816  L 219.236928 171.492096  L 219.291072 171.419904  L 219.652032 171.690624  L 222.33216 168.11712  z "
           clip-path="url(#p369e64dc18)" />
      </g>
      <g
         id="patch_13">
        <path
           id="path42"
           style="fill:#1f77b4;"
           d="M 344.962363 252.034363  L 357.724226 258.415294  L 354.565665 261.573855  L 354.655905 261.664095  L 354.592095 261.727905  L 354.501855 261.637665  L 351.343294 264.796226  z "
           clip-path="url(#p369e64dc18)" />
      </g>
      <g
         id="patch_14">
        <path
           id="path45"
           style="fill:#1f77b4;"
           d="M 254.722363 161.794363  L 267.484226 168.175294  L 264.325665 171.333855  L 264.415905 171.424095  L 264.352095 171.487905  L 264.261855 171.397665  L 261.103294 174.556226  z "
           clip-path="url(#p369e64dc18)" />
      </g>
      <g
         id="patch_15">
        <path
           id="path48"
           style="fill:#1f77b4;"
           d="M 164.482363 71.554363  L 177.244226 77.935294  L 174.085665 81.093855  L 174.175905 81.184095  L 174.112095 81.247905  L 174.021855 81.157665  L 170.863294 84.316226  z "
           clip-path="url(#p369e64dc18)" />
      </g>
      <g
         id="patch_16">
        <path
           id="path51"
           style="fill:#1f77b4;"
           d="M 74.242363 -18.685637  L 87.004226 -12.304706  L 83.845665 -9.146145  L 83.935905 -9.055905  L 83.872095 -8.992095  L 83.781855 -9.082335  L 80.623294 -5.923774  z "
           clip-path="url(#p369e64dc18)" />
      </g>
      <g
         id="patch_17">
        <path
           id="path54"
           style="fill:#1f77b4;"
           d="M 275.40504 135.152832  L 262.016576 130.22024  L 264.807014 126.732193  L 264.355814 126.371233  L 264.412186 126.300767  L 264.863386 126.661727  L 267.653824 123.17368  z "
           clip-path="url(#p369e64dc18)" />
      </g>
      <g
         id="patch_18">
        <path
           id="path57"
           style="fill:#1f77b4;"
           d="M 435.202363 252.034363  L 447.964226 258.415294  L 444.805665 261.573855  L 444.895905 261.664095  L 444.832095 261.727905  L 444.741855 261.637665  L 441.583294 264.796226  z "
           clip-path="url(#p369e64dc18)" />
      </g>
      <g
         id="patch_19">
        <path
           id="path60"
           style="fill:#1f77b4;"
           d="M 344.962363 161.794363  L 357.724226 168.175294  L 354.565665 171.333855  L 354.655905 171.424095  L 354.592095 171.487905  L 354.501855 171.397665  L 351.343294 174.556226  z "
           clip-path="url(#p369e64dc18)" />
      </g>
      <g
         id="patch_20">
        <path
           id="path63"
           style="fill:#1f77b4;"
           d="M 254.722363 71.554363  L 267.484226 77.935294  L 264.325665 81.093855  L 264.415905 81.184095  L 264.352095 81.247905  L 264.261855 81.157665  L 261.103294 84.316226  z "
           clip-path="url(#p369e64dc18)" />
      </g>
      <g
         id="patch_21">
        <path
           id="path66"
           style="fill:#1f77b4;"
           d="M 164.482363 -18.685637  L 177.244226 -12.304706  L 174.085665 -9.146145  L 174.175905 -9.055905  L 174.112095 -8.992095  L 174.021855 -9.082335  L 170.863294 -5.923774  z "
           clip-path="url(#p369e64dc18)" />
      </g>
      <g
         id="patch_22">
        <path
           id="path69"
           style="fill:#1f77b4;"
           d="M 74.242363 -108.925637  L 87.004226 -102.544706  L 83.845665 -99.386145  L 83.935905 -99.295905  L 83.872095 -99.232095  L 83.781855 -99.322335  L 80.623294 -96.163774  z "
           clip-path="url(#p369e64dc18)" />
      </g>
      <g
         id="patch_23">
        <path
           id="path72"
           style="fill:#1f77b4;"
           d="M 320.444083 90.332736  L 307.156928 85.133414  L 310.016555 81.701862  L 309.475115 81.250662  L 309.532885 81.181338  L 310.074325 81.632538  L 312.933952 78.200986  z "
           clip-path="url(#p369e64dc18)" />
      </g>
      <g
         id="patch_24">
        <path
           id="path75"
           style="fill:#1f77b4;"
           d="M 525.442363 252.034363  L 538.204226 258.415294  L 535.045665 261.573855  L 535.135905 261.664095  L 535.072095 261.727905  L 534.981855 261.637665  L 531.823294 264.796226  z "
           clip-path="url(#p369e64dc18)" />
      </g>
      <g
         id="patch_25">
        <path
           id="path78"
           style="fill:#1f77b4;"
           d="M 435.202363 161.794363  L 447.964226 168.175294  L 444.805665 171.333855  L 444.895905 171.424095  L 444.832095 171.487905  L 444.741855 171.397665  L 441.583294 174.556226  z "
           clip-path="url(#p369e64dc18)" />
      </g>
      <g
         id="patch_26">
        <path
           id="path81"
           style="fill:#1f77b4;"
           d="M 344.962363 71.554363  L 357.724226 77.935294  L 354.565665 81.093855  L 354.655905 81.184095  L 354.592095 81.247905  L 354.501855 81.157665  L 351.343294 84.316226  z "
           clip-path="url(#p369e64dc18)" />
      </g>
      <g
         id="patch_27">
        <path
           id="path84"
           style="fill:#1f77b4;"
           d="M 254.722363 -18.685637  L 267.484226 -12.304706  L 264.325665 -9.146145  L 264.415905 -9.055905  L 264.352095 -8.992095  L 264.261855 -9.082335  L 261.103294 -5.923774  z "
           clip-path="url(#p369e64dc18)" />
      </g>
      <g
         id="patch_28">
        <path
           id="path87"
           style="fill:#1f77b4;"
           d="M 164.482363 -108.925637  L 177.244226 -102.544706  L 174.085665 -99.386145  L 174.175905 -99.295905  L 174.112095 -99.232095  L 174.021855 -99.322335  L 170.863294 -96.163774  z "
           clip-path="url(#p369e64dc18)" />
      </g>
      <g
         id="patch_29">
        <path
           id="path90"
           style="fill:#1f77b4;"
           d="M 74.242363 -199.165637  L 87.004226 -192.784706  L 83.845665 -189.626145  L 83.935905 -189.535905  L 83.872095 -189.472095  L 83.781855 -189.562335  L 80.623294 -186.403774  z "
           clip-path="url(#p369e64dc18)" />
      </g>
      <g
         id="patch_30">
        <path
           id="path93"
           style="fill:#1f77b4;"
           d="M 365.532977 45.446552  L 352.319309 40.063206  L 355.226316 36.671698  L 354.594636 36.130258  L 354.653364 36.061742  L 355.285044 36.603182  L 358.192051 33.211674  z "
           clip-path="url(#p369e64dc18)" />
      </g>
      <g
         id="patch_31">
        <path
           id="path96"
           style="fill:#1f77b4;"
           d="M 615.682363 252.034363  L 628.444226 258.415294  L 625.285665 261.573855  L 625.375905 261.664095  L 625.312095 261.727905  L 625.221855 261.637665  L 622.063294 264.796226  z "
           clip-path="url(#p369e64dc18)" />
      </g>
      <g
         id="matplotlib.axis_1">
        <g
           id="xtick_1">
          <g
             id="line2d_1">
            <path
               id="path99"
               style="fill:none;stroke:#b0b0b0;stroke-linecap:square;stroke-width:0.8;"
               d="M 38.784 324.864  L 38.784 0  "
               clip-path="url(#p369e64dc18)" />
          </g>
          <g
             id="line2d_2">
            <defs
               id="defs103">
              <path
                 style="stroke:#000000;stroke-width:0.8;"
                 id="m46850f3a11"
                 d="M 0 0  L 0 3.5  " />
            </defs>
            <g
               id="g107">
              <use
                 id="use105"
                 y="324.864"
                 xlink:href="#m46850f3a11"
                 x="38.784"
                 style="stroke:#000000;stroke-width:0.8;" />
            </g>
          </g>
          <g
             id="text_1">
            <!-- 0 -->
            <defs
               id="defs111">
              <path
                 id="DejaVuSans-48"
                 d="M 31.78125 66.40625  Q 24.171875 66.40625 20.328125 58.90625  Q 16.5 51.421875 16.5 36.375  Q 16.5 21.390625 20.328125 13.890625  Q 24.171875 6.390625 31.78125 6.390625  Q 39.453125 6.390625 43.28125 13.890625  Q 47.125 21.390625 47.125 36.375  Q 47.125 51.421875 43.28125 58.90625  Q 39.453125 66.40625 31.78125 66.40625  z M 31.78125 74.21875  Q 44.046875 74.21875 50.515625 64.515625  Q 56.984375 54.828125 56.984375 36.375  Q 56.984375 17.96875 50.515625 8.265625  Q 44.046875 -1.421875 31.78125 -1.421875  Q 19.53125 -1.421875 13.0625 8.265625  Q 6.59375 17.96875 6.59375 36.375  Q 6.59375 54.828125 13.0625 64.515625  Q 19.53125 74.21875 31.78125 74.21875  z " />
            </defs>
            <g
               id="g115"
               transform="translate(35.60275 339.462437)scale(0.1 -0.1)">
              <use
                 id="use113"
                 xlink:href="#DejaVuSans-48" />
            </g>
          </g>
        </g>
        <g
           id="xtick_2">
          <g
             id="line2d_3">
            <path
               id="path119"
               style="fill:none;stroke:#b0b0b0;stroke-linecap:square;stroke-width:0.8;"
               d="M 129.024 324.864  L 129.024 0  "
               clip-path="url(#p369e64dc18)" />
          </g>
          <g
             id="line2d_4">
            <g
               id="g124">
              <use
                 id="use122"
                 y="324.864"
                 xlink:href="#m46850f3a11"
                 x="129.024"
                 style="stroke:#000000;stroke-width:0.8;" />
            </g>
          </g>
          <g
             id="text_2">
            <!-- 1 -->
            <defs
               id="defs128">
              <path
                 id="DejaVuSans-49"
                 d="M 12.40625 8.296875  L 28.515625 8.296875  L 28.515625 63.921875  L 10.984375 60.40625  L 10.984375 69.390625  L 28.421875 72.90625  L 38.28125 72.90625  L 38.28125 8.296875  L 54.390625 8.296875  L 54.390625 0  L 12.40625 0  z " />
            </defs>
            <g
               id="g132"
               transform="translate(125.84275 339.462437)scale(0.1 -0.1)">
              <use
                 id="use130"
                 xlink:href="#DejaVuSans-49" />
            </g>
          </g>
        </g>
        <g
           id="xtick_3">
          <g
             id="line2d_5">
            <path
               id="path136"
               style="fill:none;stroke:#b0b0b0;stroke-linecap:square;stroke-width:0.8;"
               d="M 219.264 324.864  L 219.264 0  "
               clip-path="url(#p369e64dc18)" />
          </g>
          <g
             id="line2d_6">
            <g
               id="g141">
              <use
                 id="use139"
                 y="324.864"
                 xlink:href="#m46850f3a11"
                 x="219.264"
                 style="stroke:#000000;stroke-width:0.8;" />
            </g>
          </g>
          <g
             id="text_3">
            <!-- 2 -->
            <defs
               id="defs145">
              <path
                 id="DejaVuSans-50"
                 d="M 19.1875 8.296875  L 53.609375 8.296875  L 53.609375 0  L 7.328125 0  L 7.328125 8.296875  Q 12.9375 14.109375 22.625 23.890625  Q 32.328125 33.6875 34.8125 36.53125  Q 39.546875 41.84375 41.421875 45.53125  Q 43.3125 49.21875 43.3125 52.78125  Q 43.3125 58.59375 39.234375 62.25  Q 35.15625 65.921875 28.609375 65.921875  Q 23.96875 65.921875 18.8125 64.3125  Q 13.671875 62.703125 7.8125 59.421875  L 7.8125 69.390625  Q 13.765625 71.78125 18.9375 73  Q 24.125 74.21875 28.421875 74.21875  Q 39.75 74.21875 46.484375 68.546875  Q 53.21875 62.890625 53.21875 53.421875  Q 53.21875 48.921875 51.53125 44.890625  Q 49.859375 40.875 45.40625 35.40625  Q 44.1875 33.984375 37.640625 27.21875  Q 31.109375 20.453125 19.1875 8.296875  z " />
            </defs>
            <g
               id="g149"
               transform="translate(216.08275 339.462437)scale(0.1 -0.1)">
              <use
                 id="use147"
                 xlink:href="#DejaVuSans-50" />
            </g>
          </g>
        </g>
        <g
           id="xtick_4">
          <g
             id="line2d_7">
            <path
               id="path153"
               style="fill:none;stroke:#b0b0b0;stroke-linecap:square;stroke-width:0.8;"
               d="M 309.504 324.864  L 309.504 0  "
               clip-path="url(#p369e64dc18)" />
          </g>
          <g
             id="line2d_8">
            <g
               id="g158">
              <use
                 id="use156"
                 y="324.864"
                 xlink:href="#m46850f3a11"
                 x="309.504"
                 style="stroke:#000000;stroke-width:0.8;" />
            </g>
          </g>
          <g
             id="text_4">
            <!-- 3 -->
            <defs
               id="defs162">
              <path
                 id="DejaVuSans-51"
                 d="M 40.578125 39.3125  Q 47.65625 37.796875 51.625 33  Q 55.609375 28.21875 55.609375 21.1875  Q 55.609375 10.40625 48.1875 4.484375  Q 40.765625 -1.421875 27.09375 -1.421875  Q 22.515625 -1.421875 17.65625 -0.515625  Q 12.796875 0.390625 7.625 2.203125  L 7.625 11.71875  Q 11.71875 9.328125 16.59375 8.109375  Q 21.484375 6.890625 26.8125 6.890625  Q 36.078125 6.890625 40.9375 10.546875  Q 45.796875 14.203125 45.796875 21.1875  Q 45.796875 27.640625 41.28125 31.265625  Q 36.765625 34.90625 28.71875 34.90625  L 20.21875 34.90625  L 20.21875 43.015625  L 29.109375 43.015625  Q 36.375 43.015625 40.234375 45.921875  Q 44.09375 48.828125 44.09375 54.296875  Q 44.09375 59.90625 40.109375 62.90625  Q 36.140625 65.921875 28.71875 65.921875  Q 24.65625 65.921875 20.015625 65.03125  Q 15.375 64.15625 9.8125 62.3125  L 9.8125 71.09375  Q 15.4375 72.65625 20.34375 73.4375  Q 25.25 74.21875 29.59375 74.21875  Q 40.828125 74.21875 47.359375 69.109375  Q 53.90625 64.015625 53.90625 55.328125  Q 53.90625 49.265625 50.4375 45.09375  Q 46.96875 40.921875 40.578125 39.3125  z " />
            </defs>
            <g
               id="g166"
               transform="translate(306.32275 339.462437)scale(0.1 -0.1)">
              <use
                 id="use164"
                 xlink:href="#DejaVuSans-51" />
            </g>
          </g>
        </g>
      </g>
      <g
         id="matplotlib.axis_2">
        <g
           id="ytick_1">
          <g
             id="line2d_9">
            <path
               id="path171"
               style="fill:none;stroke:#b0b0b0;stroke-linecap:square;stroke-width:0.8;"
               d="M 20.736 306.816  L 345.6 306.816  "
               clip-path="url(#p369e64dc18)" />
          </g>
          <g
             id="line2d_10">
            <defs
               id="defs175">
              <path
                 style="stroke:#000000;stroke-width:0.8;"
                 id="m6dd7715ea4"
                 d="M 0 0  L -3.5 0  " />
            </defs>
            <g
               id="g179">
              <use
                 id="use177"
                 y="306.816"
                 xlink:href="#m6dd7715ea4"
                 x="20.736"
                 style="stroke:#000000;stroke-width:0.8;" />
            </g>
          </g>
          <g
             id="text_5">
            <!-- 0 -->
            <g
               id="g184"
               transform="translate(7.3735 310.615219)scale(0.1 -0.1)">
              <use
                 id="use182"
                 xlink:href="#DejaVuSans-48" />
            </g>
          </g>
        </g>
        <g
           id="ytick_2">
          <g
             id="line2d_11">
            <path
               id="path188"
               style="fill:none;stroke:#b0b0b0;stroke-linecap:square;stroke-width:0.8;"
               d="M 20.736 216.576  L 345.6 216.576  "
               clip-path="url(#p369e64dc18)" />
          </g>
          <g
             id="line2d_12">
            <g
               id="g193">
              <use
                 id="use191"
                 y="216.576"
                 xlink:href="#m6dd7715ea4"
                 x="20.736"
                 style="stroke:#000000;stroke-width:0.8;" />
            </g>
          </g>
          <g
             id="text_6">
            <!-- 1 -->
            <g
               id="g198"
               transform="translate(7.3735 220.375219)scale(0.1 -0.1)">
              <use
                 id="use196"
                 xlink:href="#DejaVuSans-49" />
            </g>
          </g>
        </g>
        <g
           id="ytick_3">
          <g
             id="line2d_13">
            <path
               id="path202"
               style="fill:none;stroke:#b0b0b0;stroke-linecap:square;stroke-width:0.8;"
               d="M 20.736 126.336  L 345.6 126.336  "
               clip-path="url(#p369e64dc18)" />
          </g>
          <g
             id="line2d_14">
            <g
               id="g207">
              <use
                 id="use205"
                 y="126.336"
                 xlink:href="#m6dd7715ea4"
                 x="20.736"
                 style="stroke:#000000;stroke-width:0.8;" />
            </g>
          </g>
          <g
             id="text_7">
            <!-- 2 -->
            <g
               id="g212"
               transform="translate(7.3735 130.135219)scale(0.1 -0.1)">
              <use
                 id="use210"
                 xlink:href="#DejaVuSans-50" />
            </g>
          </g>
        </g>
        <g
           id="ytick_4">
          <g
             id="line2d_15">
            <path
               id="path216"
               style="fill:none;stroke:#b0b0b0;stroke-linecap:square;stroke-width:0.8;"
               d="M 20.736 36.096  L 345.6 36.096  "
               clip-path="url(#p369e64dc18)" />
          </g>
          <g
             id="line2d_16">
            <g
               id="g221">
              <use
                 id="use219"
                 y="36.096"
                 xlink:href="#m6dd7715ea4"
                 x="20.736"
                 style="stroke:#000000;stroke-width:0.8;" />
            </g>
          </g>
          <g
             id="text_8">
            <!-- 3 -->
            <g
               id="g226"
               transform="translate(7.3735 39.895219)scale(0.1 -0.1)">
              <use
                 id="use224"
                 xlink:href="#DejaVuSans-51" />
            </g>
          </g>
        </g>
      </g>
      <g
         id="line2d_17">
        <path
           id="path231"
           style="fill:none;stroke:#0000ff;stroke-linecap:square;stroke-width:1.5;"
           d="M 38.784 306.816  L 129.024 306.816  L 38.784 216.576  L 219.264 306.816  L 129.024 216.576  L 38.784 126.336  L 309.504 306.816  L 219.264 216.576  L 129.024 126.336  L 38.784 36.096  L 346.6 266.958  M 346.6 253.672  L 309.504 216.576  L 219.264 126.336  L 129.024 36.096  L 91.928 -1  M 105.214 -1  L 346.6 192.1088  M 346.6 163.432  L 309.504 126.336  L 219.264 36.096  L 182.168 -1  M 210.8448 -1  L 346.6 112.129333  M 346.6 73.192  L 309.504 36.096  L 272.408 -1  M 311.345333 -1  L 346.6 29.218286  "
           clip-path="url(#p369e64dc18)" />
        <defs
           id="defs234">
          <path
             style="stroke:#ff0000;"
             id="m5fc0bbeb8f"
             d="M 0 3  C 0.795609 3 1.55874 2.683901 2.12132 2.12132  C 2.683901 1.55874 3 0.795609 3 0  C 3 -0.795609 2.683901 -1.55874 2.12132 -2.12132  C 1.55874 -2.683901 0.795609 -3 0 -3  C -0.795609 -3 -1.55874 -2.683901 -2.12132 -2.12132  C -2.683901 -1.55874 -3 -0.795609 -3 0  C -3 0.795609 -2.683901 1.55874 -2.12132 2.12132  C -1.55874 2.683901 -0.795609 3 0 3  z " />
        </defs>
        <g
           id="g296"
           clip-path="url(#p369e64dc18)">
          <use
             id="use236"
             y="306.816"
             xlink:href="#m5fc0bbeb8f"
             x="38.784"
             style="fill:#ff0000;stroke:#ff0000;" />
          <use
             id="use238"
             y="306.816"
             xlink:href="#m5fc0bbeb8f"
             x="129.024"
             style="fill:#ff0000;stroke:#ff0000;" />
          <use
             id="use240"
             y="216.576"
             xlink:href="#m5fc0bbeb8f"
             x="38.784"
             style="fill:#ff0000;stroke:#ff0000;" />
          <use
             id="use242"
             y="306.816"
             xlink:href="#m5fc0bbeb8f"
             x="219.264"
             style="fill:#ff0000;stroke:#ff0000;" />
          <use
             id="use244"
             y="216.576"
             xlink:href="#m5fc0bbeb8f"
             x="129.024"
             style="fill:#ff0000;stroke:#ff0000;" />
          <use
             id="use246"
             y="126.336"
             xlink:href="#m5fc0bbeb8f"
             x="38.784"
             style="fill:#ff0000;stroke:#ff0000;" />
          <use
             id="use248"
             y="306.816"
             xlink:href="#m5fc0bbeb8f"
             x="309.504"
             style="fill:#ff0000;stroke:#ff0000;" />
          <use
             id="use250"
             y="216.576"
             xlink:href="#m5fc0bbeb8f"
             x="219.264"
             style="fill:#ff0000;stroke:#ff0000;" />
          <use
             id="use252"
             y="126.336"
             xlink:href="#m5fc0bbeb8f"
             x="129.024"
             style="fill:#ff0000;stroke:#ff0000;" />
          <use
             id="use254"
             y="36.096"
             xlink:href="#m5fc0bbeb8f"
             x="38.784"
             style="fill:#ff0000;stroke:#ff0000;" />
          <use
             id="use256"
             y="306.816"
             xlink:href="#m5fc0bbeb8f"
             x="399.744"
             style="fill:#ff0000;stroke:#ff0000;" />
          <use
             id="use258"
             y="216.576"
             xlink:href="#m5fc0bbeb8f"
             x="309.504"
             style="fill:#ff0000;stroke:#ff0000;" />
          <use
             id="use260"
             y="126.336"
             xlink:href="#m5fc0bbeb8f"
             x="219.264"
             style="fill:#ff0000;stroke:#ff0000;" />
          <use
             id="use262"
             y="36.096"
             xlink:href="#m5fc0bbeb8f"
             x="129.024"
             style="fill:#ff0000;stroke:#ff0000;" />
          <use
             id="use268"
             y="306.816"
             xlink:href="#m5fc0bbeb8f"
             x="489.984"
             style="fill:#ff0000;stroke:#ff0000;" />
          <use
             id="use270"
             y="216.576"
             xlink:href="#m5fc0bbeb8f"
             x="399.744"
             style="fill:#ff0000;stroke:#ff0000;" />
          <use
             id="use272"
             y="126.336"
             xlink:href="#m5fc0bbeb8f"
             x="309.504"
             style="fill:#ff0000;stroke:#ff0000;" />
          <use
             id="use274"
             y="36.096"
             xlink:href="#m5fc0bbeb8f"
             x="219.264"
             style="fill:#ff0000;stroke:#ff0000;" />
          <use
             id="use280"
             y="306.816"
             xlink:href="#m5fc0bbeb8f"
             x="580.224"
             style="fill:#ff0000;stroke:#ff0000;" />
          <use
             id="use282"
             y="216.576"
             xlink:href="#m5fc0bbeb8f"
             x="489.984"
             style="fill:#ff0000;stroke:#ff0000;" />
          <use
             id="use284"
             y="126.336"
             xlink:href="#m5fc0bbeb8f"
             x="399.744"
             style="fill:#ff0000;stroke:#ff0000;" />
          <use
             id="use286"
             y="36.096"
             xlink:href="#m5fc0bbeb8f"
             x="309.504"
             style="fill:#ff0000;stroke:#ff0000;" />
          <use
             id="use292"
             y="306.816"
             xlink:href="#m5fc0bbeb8f"
             x="670.464"
             style="fill:#ff0000;stroke:#ff0000;" />
          <use
             id="use294"
             y="216.576"
             xlink:href="#m5fc0bbeb8f"
             x="580.224"
             style="fill:#ff0000;stroke:#ff0000;" />
        </g>
      </g>
      <g
         id="patch_32">
        <path
           id="path299"
           style="fill:none;stroke:#000000;stroke-linecap:square;stroke-linejoin:miter;stroke-width:0.8;"
           d="M 20.736 324.864  L 20.736 0  " />
      </g>
      <g
         id="patch_33">
        <path
           id="path302"
           style="fill:none;stroke:#000000;stroke-linecap:square;stroke-linejoin:miter;stroke-width:0.8;"
           d="M 20.736 324.864  L 345.6 324.864  " />
      </g>
      <g
         id="text_9">
        <!-- 0 -->
        <g
           id="g307"
           transform="translate(45.1008 304.1088)scale(0.1 -0.1)">
          <use
             id="use305"
             xlink:href="#DejaVuSans-48" />
        </g>
      </g>
      <g
         id="text_10">
        <!-- 1 -->
        <g
           id="g312"
           transform="translate(135.3408 304.1088)scale(0.1 -0.1)">
          <use
             id="use310"
             xlink:href="#DejaVuSans-49" />
        </g>
      </g>
      <g
         id="text_11">
        <!-- 2 -->
        <g
           id="g317"
           transform="translate(45.1008 213.8688)scale(0.1 -0.1)">
          <use
             id="use315"
             xlink:href="#DejaVuSans-50" />
        </g>
      </g>
      <g
         id="text_12">
        <!-- 3 -->
        <g
           id="g322"
           transform="translate(225.5808 304.1088)scale(0.1 -0.1)">
          <use
             id="use320"
             xlink:href="#DejaVuSans-51" />
        </g>
      </g>
      <g
         id="text_13">
        <!-- 4 -->
        <defs
           id="defs326">
          <path
             id="DejaVuSans-52"
             d="M 37.796875 64.3125  L 12.890625 25.390625  L 37.796875 25.390625  z M 35.203125 72.90625  L 47.609375 72.90625  L 47.609375 25.390625  L 58.015625 25.390625  L 58.015625 17.1875  L 47.609375 17.1875  L 47.609375 0  L 37.796875 0  L 37.796875 17.1875  L 4.890625 17.1875  L 4.890625 26.703125  z " />
        </defs>
        <g
           id="g330"
           transform="translate(135.3408 213.8688)scale(0.1 -0.1)">
          <use
             id="use328"
             xlink:href="#DejaVuSans-52" />
        </g>
      </g>
      <g
         id="text_14">
        <!-- 5 -->
        <defs
           id="defs334">
          <path
             id="DejaVuSans-53"
             d="M 10.796875 72.90625  L 49.515625 72.90625  L 49.515625 64.59375  L 19.828125 64.59375  L 19.828125 46.734375  Q 21.96875 47.46875 24.109375 47.828125  Q 26.265625 48.1875 28.421875 48.1875  Q 40.625 48.1875 47.75 41.5  Q 54.890625 34.8125 54.890625 23.390625  Q 54.890625 11.625 47.5625 5.09375  Q 40.234375 -1.421875 26.90625 -1.421875  Q 22.3125 -1.421875 17.546875 -0.640625  Q 12.796875 0.140625 7.71875 1.703125  L 7.71875 11.625  Q 12.109375 9.234375 16.796875 8.0625  Q 21.484375 6.890625 26.703125 6.890625  Q 35.15625 6.890625 40.078125 11.328125  Q 45.015625 15.765625 45.015625 23.390625  Q 45.015625 31 40.078125 35.4375  Q 35.15625 39.890625 26.703125 39.890625  Q 22.75 39.890625 18.8125 39.015625  Q 14.890625 38.140625 10.796875 36.28125  z " />
        </defs>
        <g
           id="g338"
           transform="translate(45.1008 123.6288)scale(0.1 -0.1)">
          <use
             id="use336"
             xlink:href="#DejaVuSans-53" />
        </g>
      </g>
      <g
         id="text_15">
        <!-- 6 -->
        <defs
           id="defs342">
          <path
             id="DejaVuSans-54"
             d="M 33.015625 40.375  Q 26.375 40.375 22.484375 35.828125  Q 18.609375 31.296875 18.609375 23.390625  Q 18.609375 15.53125 22.484375 10.953125  Q 26.375 6.390625 33.015625 6.390625  Q 39.65625 6.390625 43.53125 10.953125  Q 47.40625 15.53125 47.40625 23.390625  Q 47.40625 31.296875 43.53125 35.828125  Q 39.65625 40.375 33.015625 40.375  z M 52.59375 71.296875  L 52.59375 62.3125  Q 48.875 64.0625 45.09375 64.984375  Q 41.3125 65.921875 37.59375 65.921875  Q 27.828125 65.921875 22.671875 59.328125  Q 17.53125 52.734375 16.796875 39.40625  Q 19.671875 43.65625 24.015625 45.921875  Q 28.375 48.1875 33.59375 48.1875  Q 44.578125 48.1875 50.953125 41.515625  Q 57.328125 34.859375 57.328125 23.390625  Q 57.328125 12.15625 50.6875 5.359375  Q 44.046875 -1.421875 33.015625 -1.421875  Q 20.359375 -1.421875 13.671875 8.265625  Q 6.984375 17.96875 6.984375 36.375  Q 6.984375 53.65625 15.1875 63.9375  Q 23.390625 74.21875 37.203125 74.21875  Q 40.921875 74.21875 44.703125 73.484375  Q 48.484375 72.75 52.59375 71.296875  z " />
        </defs>
        <g
           id="g346"
           transform="translate(315.8208 304.1088)scale(0.1 -0.1)">
          <use
             id="use344"
             xlink:href="#DejaVuSans-54" />
        </g>
      </g>
      <g
         id="text_16">
        <!-- 7 -->
        <defs
           id="defs350">
          <path
             id="DejaVuSans-55"
             d="M 8.203125 72.90625  L 55.078125 72.90625  L 55.078125 68.703125  L 28.609375 0  L 18.3125 0  L 43.21875 64.59375  L 8.203125 64.59375  z " />
        </defs>
        <g
           id="g354"
           transform="translate(225.5808 213.8688)scale(0.1 -0.1)">
          <use
             id="use352"
             xlink:href="#DejaVuSans-55" />
        </g>
      </g>
      <g
         id="text_17">
        <!-- 8 -->
        <defs
           id="defs358">
          <path
             id="DejaVuSans-56"
             d="M 31.78125 34.625  Q 24.75 34.625 20.71875 30.859375  Q 16.703125 27.09375 16.703125 20.515625  Q 16.703125 13.921875 20.71875 10.15625  Q 24.75 6.390625 31.78125 6.390625  Q 38.8125 6.390625 42.859375 10.171875  Q 46.921875 13.96875 46.921875 20.515625  Q 46.921875 27.09375 42.890625 30.859375  Q 38.875 34.625 31.78125 34.625  z M 21.921875 38.8125  Q 15.578125 40.375 12.03125 44.71875  Q 8.5 49.078125 8.5 55.328125  Q 8.5 64.0625 14.71875 69.140625  Q 20.953125 74.21875 31.78125 74.21875  Q 42.671875 74.21875 48.875 69.140625  Q 55.078125 64.0625 55.078125 55.328125  Q 55.078125 49.078125 51.53125 44.71875  Q 48 40.375 41.703125 38.8125  Q 48.828125 37.15625 52.796875 32.3125  Q 56.78125 27.484375 56.78125 20.515625  Q 56.78125 9.90625 50.3125 4.234375  Q 43.84375 -1.421875 31.78125 -1.421875  Q 19.734375 -1.421875 13.25 4.234375  Q 6.78125 9.90625 6.78125 20.515625  Q 6.78125 27.484375 10.78125 32.3125  Q 14.796875 37.15625 21.921875 38.8125  z M 18.3125 54.390625  Q 18.3125 48.734375 21.84375 45.5625  Q 25.390625 42.390625 31.78125 42.390625  Q 38.140625 42.390625 41.71875 45.5625  Q 45.3125 48.734375 45.3125 54.390625  Q 45.3125 60.0625 41.71875 63.234375  Q 38.140625 66.40625 31.78125 66.40625  Q 25.390625 66.40625 21.84375 63.234375  Q 18.3125 60.0625 18.3125 54.390625  z " />
        </defs>
        <g
           id="g362"
           transform="translate(135.3408 123.6288)scale(0.1 -0.1)">
          <use
             id="use360"
             xlink:href="#DejaVuSans-56" />
        </g>
      </g>
      <g
         id="text_18">
        <!-- 9 -->
        <defs
           id="defs366">
          <path
             id="DejaVuSans-57"
             d="M 10.984375 1.515625  L 10.984375 10.5  Q 14.703125 8.734375 18.5 7.8125  Q 22.3125 6.890625 25.984375 6.890625  Q 35.75 6.890625 40.890625 13.453125  Q 46.046875 20.015625 46.78125 33.40625  Q 43.953125 29.203125 39.59375 26.953125  Q 35.25 24.703125 29.984375 24.703125  Q 19.046875 24.703125 12.671875 31.3125  Q 6.296875 37.9375 6.296875 49.421875  Q 6.296875 60.640625 12.9375 67.421875  Q 19.578125 74.21875 30.609375 74.21875  Q 43.265625 74.21875 49.921875 64.515625  Q 56.59375 54.828125 56.59375 36.375  Q 56.59375 19.140625 48.40625 8.859375  Q 40.234375 -1.421875 26.421875 -1.421875  Q 22.703125 -1.421875 18.890625 -0.6875  Q 15.09375 0.046875 10.984375 1.515625  z M 30.609375 32.421875  Q 37.25 32.421875 41.125 36.953125  Q 45.015625 41.5 45.015625 49.421875  Q 45.015625 57.28125 41.125 61.84375  Q 37.25 66.40625 30.609375 66.40625  Q 23.96875 66.40625 20.09375 61.84375  Q 16.21875 57.28125 16.21875 49.421875  Q 16.21875 41.5 20.09375 36.953125  Q 23.96875 32.421875 30.609375 32.421875  z " />
        </defs>
        <g
           id="g370"
           transform="translate(45.1008 33.3888)scale(0.1 -0.1)">
          <use
             id="use368"
             xlink:href="#DejaVuSans-57" />
        </g>
      </g>
      <g
         id="text_19">
        <!-- 11 -->
        <g
           id="g377"
           transform="translate(315.8208 213.8688)scale(0.1 -0.1)">
          <use
             id="use373"
             xlink:href="#DejaVuSans-49" />
          <use
             id="use375"
             xlink:href="#DejaVuSans-49"
             x="63.623047" />
        </g>
      </g>
      <g
         id="text_20">
        <!-- 12 -->
        <g
           id="g384"
           transform="translate(225.5808 123.6288)scale(0.1 -0.1)">
          <use
             id="use380"
             xlink:href="#DejaVuSans-49" />
          <use
             id="use382"
             xlink:href="#DejaVuSans-50"
             x="63.623047" />
        </g>
      </g>
      <g
         id="text_21">
        <!-- 13 -->
        <g
           id="g391"
           transform="translate(135.3408 33.3888)scale(0.1 -0.1)">
          <use
             id="use387"
             xlink:href="#DejaVuSans-49" />
          <use
             id="use389"
             xlink:href="#DejaVuSans-51"
             x="63.623047" />
        </g>
      </g>
      <g
         id="text_22">
        <!-- 17 -->
        <g
           id="g398"
           transform="translate(315.8208 123.6288)scale(0.1 -0.1)">
          <use
             id="use394"
             xlink:href="#DejaVuSans-49" />
          <use
             id="use396"
             xlink:href="#DejaVuSans-55"
             x="63.623047" />
        </g>
      </g>
      <g
         id="text_23">
        <!-- 18 -->
        <g
           id="g405"
           transform="translate(225.5808 33.3888)scale(0.1 -0.1)">
          <use
             id="use401"
             xlink:href="#DejaVuSans-49" />
          <use
             id="use403"
             xlink:href="#DejaVuSans-56"
             x="63.623047" />
        </g>
      </g>
      <g
         id="text_24">
        <!-- 24 -->
        <g
           id="g412"
           transform="translate(315.8208 33.3888)scale(0.1 -0.1)">
          <use
             id="use408"
             xlink:href="#DejaVuSans-50" />
          <use
             id="use410"
             xlink:href="#DejaVuSans-52"
             x="63.623047" />
        </g>
      </g>
    </g>
  </g>
  <defs
     id="defs420">
    <clipPath
       id="p369e64dc18">
      <rect
         id="rect417"
         y="0"
         x="20.736"
         width="324.864"
         height="324.864" />
    </clipPath>
  </defs>
</svg>
